#!OML:ASF E:\emotionWalksFemale\Project 1\Capture day 1\Session 1\Female1.ASF
:FULLY-SPECIFIED
:DEGREES
2941
root 10.7683 15.3602 38.2386 14.3206 -53.7106 -7.61642
lowerback 16.7058 4.39038 -5.14774
upperback -0.108375 4.31951 -4.06252
thorax -9.5776 2.15375 -2.57326
lowerneck -14.4655 -2.22741 -9.16298
upperneck 30.2393 -6.45917 16.6542
head 13.4581 -2.02755 7.26502
rclavicle -2.10712e-014 2.06736e-014
rhumerus -36.5698 17.0748 -88.2527
rradius 40.5541
rwrist 6.38304
rhand -1.15122 -51.5749
rfingers 7.12502
rthumb 24.4873 -80.0295
lclavicle -2.10712e-014 2.06736e-014
lhumerus -15.2074 7.67454 72.0221
lradius 42.2264
lwrist -5.10538
lhand -11.3734 -34.6797
lfingers 7.12502
lthumb 14.6608 -5.21804
rfemur -16.261 -15.2984 31.8763
rtibia 44.3184
rfoot -16.7299 -23.9776
rtoes 14.571
lfemur -25.0939 -9.17597 -17.4242
ltibia 37.7186
lfoot -22.843 11.2741
ltoes -13.4141
2942
root 10.776 15.3607 38.2782 14.4002 -54.9514 -7.64844
lowerback 16.5674 4.36797 -5.2843
upperback -0.274767 4.26541 -4.07723
thorax -9.69339 2.1358 -2.5002
lowerneck -14.2685 -2.24333 -9.20627
upperneck 30.3789 -6.56616 16.761
head 13.4997 -2.08486 7.31143
rclavicle 7.51406e-014 -3.02153e-014
rhumerus -36.99 17.1303 -88.2563
rradius 40.8132
rwrist 6.06182
rhand -1.30467 -52.2897
rfingers 7.12502
rthumb 24.3402 -80.7641
lclavicle 7.51406e-014 -3.02153e-014
lhumerus -16.5568 7.77616 71.6829
lradius 42.2947
lwrist -5.12394
lhand -11.276 -34.6436
lfingers 7.12502
lthumb 14.7546 -5.18877
rfemur -16.3321 -15.3192 31.9416
rtibia 44.1845
rfoot -16.5596 -24.1197
rtoes 14.6651
lfemur -24.8248 -9.04028 -17.6844
ltibia 37.8039
lfoot -23.4969 10.9804
ltoes -6.43441
2943
root 10.7838 15.3701 38.3185 14.3062 -56.1157 -7.6304
lowerback 16.6037 4.3425 -5.34506
upperback -0.388499 4.20648 -4.10747
thorax -9.84253 2.10998 -2.49582
lowerneck -14.1814 -2.31714 -9.28303
upperneck 30.5694 -6.77143 16.922
head 13.6119 -2.17963 7.37983
rclavicle -6.36111e-014 2.8625e-014
rhumerus -37.4338 16.8766 -88.2193
rradius 41.1273
rwrist 5.8593
rhand -1.77779 -52.9615
rfingers 7.12502
rthumb 23.8865 -81.496
lclavicle -6.36111e-014 2.8625e-014
lhumerus -17.8286 7.91091 71.4127
lradius 42.3827
lwrist -5.28046
lhand -11.2795 -34.3757
lfingers 7.12502
lthumb 14.7512 -4.92064
rfemur -16.3356 -15.1804 31.9617
rtibia 44.1774
rfoot -17.1192 -24.2629
rtoes 16.2776
lfemur -24.4895 -8.77524 -18.0192
ltibia 38.0043
lfoot -24.0516 10.923
ltoes -2.42852
2944
root 10.7905 15.3908 38.3587 14.1101 -57.3117 -7.46915
lowerback 16.604 4.32697 -5.48364
upperback -0.482181 4.14913 -4.13465
thorax -9.95546 2.08871 -2.44083
lowerneck -14.1327 -2.41844 -9.44774
upperneck 30.7764 -6.9776 17.039
head 13.7425 -2.28828 7.44848
rclavicle -1.14102e-013 6.52014e-014
rhumerus -37.547 16.0929 -87.4978
rradius 40.517
rwrist 6.61411
rhand -1.41034 -48.8341
rfingers 7.12502
rthumb 24.2388 -77.3221
lclavicle -1.14102e-013 6.52014e-014
lhumerus -19.0877 7.91728 71.2514
lradius 42.4269
lwrist -5.16061
lhand -11.498 -34.1867
lfingers 7.12502
lthumb 14.5407 -4.71628
rfemur -16.3483 -14.9626 31.8976
rtibia 44.0889
rfoot -17.3712 -24.6375
rtoes 16.2296
lfemur -24.1177 -8.31246 -18.4556
ltibia 38.1324
lfoot -24.7908 10.6889
ltoes 1.52089
2945
root 10.8008 15.376 38.3965 14.1666 -58.4915 -7.53324
lowerback 16.5001 4.25852 -5.55288
upperback -0.593792 4.05207 -4.10427
thorax -10.0274 2.04873 -2.34387
lowerneck -14.0969 -2.462 -9.57967
upperneck 31.0763 -7.07866 17.0269
head 13.8895 -2.36112 7.47865
rclavicle -5.60573e-014 4.77083e-015
rhumerus -38.0417 16.8618 -87.7796
rradius 41.2587
rwrist 5.04998
rhand -2.36586 -51.246
rfingers 7.12502
rthumb 23.3224 -79.8532
lclavicle -5.60573e-014 4.77083e-015
lhumerus -20.3797 8.10069 71.0392
lradius 42.2874
lwrist -4.9759
lhand -11.3273 -34.2209
lfingers 7.12502
lthumb 14.7052 -4.76242
rfemur -16.5674 -15.8502 31.8988
rtibia 44.1697
rfoot -16.9719 -24.255
rtoes 13.5439
lfemur -23.9424 -7.89459 -18.7275
ltibia 38.3144
lfoot -25.7186 10.2989
ltoes 7.3318
2946
root 10.8089 15.3854 38.4346 14.2687 -59.617 -7.62413
lowerback 16.3955 4.17249 -5.53551
upperback -0.72731 3.94559 -4.09844
thorax -10.1146 1.99968 -2.32084
lowerneck -13.9352 -2.48488 -9.65153
upperneck 31.2954 -7.17031 17.0332
head 13.9697 -2.42661 7.49751
rclavicle -8.11041e-014 -1.90833e-014
rhumerus -38.3793 17.1172 -87.8375
rradius 41.7314
rwrist 4.19479
rhand -2.25329 -52.666
rfingers 7.12502
rthumb 23.4304 -81.2595
lclavicle -8.11041e-014 -1.90833e-014
lhumerus -22.0271 8.05087 70.6331
lradius 42.5697
lwrist -4.7298
lhand -10.9134 -34.1085
lfingers 7.12502
lthumb 15.1039 -4.67957
rfemur -16.8031 -15.9347 31.9814
rtibia 44.3824
rfoot -17.378 -24.4438
rtoes 14.0124
lfemur -23.7125 -7.57574 -18.937
ltibia 38.2924
lfoot -26.3429 9.86072
ltoes 13.8104
2947
root 10.82 15.3675 38.4702 14.1952 -60.9126 -7.53518
lowerback 16.2881 4.17765 -5.6438
upperback -0.808502 3.9308 -4.13762
thorax -10.1492 1.99748 -2.29683
lowerneck -13.6881 -2.54642 -9.85629
upperneck 31.227 -7.3091 17.2469
head 13.929 -2.50834 7.59999
rclavicle 2.0276e-014 -9.54166e-015
rhumerus -38.5937 17.0243 -87.7507
rradius 41.9512
rwrist 3.8512
rhand -2.42983 -53.6318
rfingers 7.12502
rthumb 23.2611 -82.2468
lclavicle 2.0276e-014 -9.54166e-015
lhumerus -23.1073 8.37391 70.5429
lradius 42.4413
lwrist -4.6165
lhand -10.7752 -33.9017
lfingers 7.12502
lthumb 15.2371 -4.48282
rfemur -17.0607 -16.0208 31.922
rtibia 44.6412
rfoot -17.6708 -24.7007
rtoes 14.8105
lfemur -23.508 -6.76731 -19.4369
ltibia 38.3756
lfoot -26.2367 10.1129
ltoes 13.7039
2948
root 10.8339 15.2987 38.4999 14.3651 -62.3077 -7.73653
lowerback 16.1347 4.22773 -5.80151
upperback -0.863753 3.97996 -4.105
thorax -10.1381 2.03071 -2.17791
lowerneck -13.5273 -2.64534 -10.0226
upperneck 31.1689 -7.50554 17.4387
head 13.9231 -2.61003 7.67877
rclavicle 2.38542e-015 -3.81667e-014
rhumerus -38.7269 16.5074 -87.4179
rradius 42.1047
rwrist 4.22222
rhand -2.48966 -54.1327
rfingers 7.12502
rthumb 23.2037 -82.755
lclavicle 2.38542e-015 -3.81667e-014
lhumerus -24.1305 8.63196 70.5314
lradius 42.1139
lwrist -4.09207
lhand -10.8541 -33.9864
lfingers 7.12502
lthumb 15.1611 -4.5618
rfemur -17.3708 -16.0974 32.0904
rtibia 44.9593
rfoot -17.3149 -25.2619
rtoes 12.0063
lfemur -23.2251 -5.17656 -20.1311
ltibia 38.2746
lfoot -24.5525 12.9667
ltoes -5.86584
2949
root 10.8368 15.3077 38.5303 14.6983 -63.5973 -8.11788
lowerback 15.9552 4.18693 -6.01475
upperback -0.895229 3.91765 -3.94629
thorax -10.0967 2.01883 -1.85897
lowerneck -13.6316 -2.70946 -10.1057
upperneck 31.3442 -7.61246 17.394
head 14.0479 -2.67663 7.67464
rclavicle 5.64548e-014 -3.97569e-014
rhumerus -38.9062 16.5374 -87.1359
rradius 42.4128
rwrist 4.112
rhand -2.61811 -54.4013
rfingers 7.12502
rthumb 23.0804 -83.039
lclavicle 5.64548e-014 -3.97569e-014
lhumerus -25.3311 9.14086 70.3981
lradius 41.8325
lwrist -3.9836
lhand -10.7919 -34.1487
lfingers 7.12502
lthumb 15.2209 -4.72866
rfemur -17.5011 -16.1878 32.2881
rtibia 45.0578
rfoot -17.5405 -25.5113
rtoes 10.7379
lfemur -23.0146 -4.54231 -20.2799
ltibia 38.2738
lfoot -24.4096 13.4797
ltoes -6.70555
2950
root 10.8414 15.3082 38.5614 14.6434 -64.764 -8.16737
lowerback 15.9246 4.10619 -6.08416
upperback -0.88149 3.80366 -3.90909
thorax -10.0691 1.96891 -1.74773
lowerneck -13.8108 -2.81307 -10.2064
upperneck 31.5565 -7.76112 17.3174
head 14.2155 -2.76365 7.65741
rclavicle 1.19271e-014 2.8625e-014
rhumerus -39.1813 16.7423 -87.066
rradius 42.7868
rwrist 3.43506
rhand -3.10715 -54.1387
rfingers 7.12502
rthumb 22.6111 -82.8344
lclavicle 1.19271e-014 2.8625e-014
lhumerus -26.3929 9.60723 70.1759
lradius 41.6558
lwrist -4.32322
lhand -10.4264 -33.71
lfingers 7.12502
lthumb 15.573 -4.31695
rfemur -17.6034 -16.2628 32.2234
rtibia 45.1425
rfoot -18.6865 -25.283
rtoes 13.1713
lfemur -22.7563 -3.29591 -20.6387
ltibia 38.2862
lfoot -23.868 13.5953
ltoes -10.0665
2951
root 10.8458 15.3082 38.5934 14.6329 -65.9623 -8.22475
lowerback 15.8967 4.05889 -5.99969
upperback -0.899501 3.75565 -3.93071
thorax -10.0644 1.94099 -1.80484
lowerneck -13.8297 -2.94759 -10.3806
upperneck 31.657 -7.94065 17.2825
head 14.3081 -2.87477 7.65532
rclavicle -3.57812e-015 0
rhumerus -39.3822 16.4465 -86.8464
rradius 42.9717
rwrist 3.36802
rhand -3.33228 -53.1805
rfingers 7.12502
rthumb 22.395 -81.9023
lclavicle -3.57812e-015 0
lhumerus -27.5056 9.90036 70.0169
lradius 41.6248
lwrist -4.7978
lhand -10.0711 -33.1782
lfingers 7.12502
lthumb 15.9152 -3.81217
rfemur -17.6657 -16.3075 32.1905
rtibia 45.0193
rfoot -19.3793 -25.2285
rtoes 14.43
lfemur -22.5537 -2.81896 -20.9613
ltibia 38.4967
lfoot -23.6616 14.1611
ltoes -11.6536
2952
root 10.8512 15.3135 38.6245 14.7764 -67.2655 -8.32415
lowerback 15.7626 4.03782 -5.98576
upperback -0.976579 3.73769 -3.94067
thorax -10.0715 1.93281 -1.81378
lowerneck -13.6747 -3.04647 -10.6106
upperneck 31.6006 -8.07505 17.3551
head 14.2887 -2.96837 7.70295
rclavicle 2.26615e-014 -2.54444e-014
rhumerus -39.5017 16.1815 -86.6232
rradius 42.9834
rwrist 3.192
rhand -3.69604 -52.6816
rfingers 7.12502
rthumb 22.0458 -81.445
lclavicle 2.26615e-014 -2.54444e-014
lhumerus -28.687 10.3052 69.8801
lradius 41.484
lwrist -5.39616
lhand -9.81985 -33.2421
lfingers 7.12502
lthumb 16.1571 -3.89553
rfemur -17.8058 -16.2766 32.2027
rtibia 44.9361
rfoot -19.9909 -25.3552
rtoes 15.4883
lfemur -22.4608 -2.04696 -21.3201
ltibia 38.6665
lfoot -22.7086 15.1274
ltoes -17.6276
2953
root 10.859 15.3103 38.6564 14.502 -68.5652 -8.04278
lowerback 15.732 4.04555 -6.04097
upperback -1.04902 3.7217 -4.04766
thorax -10.1314 1.92433 -1.8982
lowerneck -13.4337 -3.18277 -10.7324
upperneck 31.43 -8.31568 17.5045
head 14.2211 -3.09123 7.73536
rclavicle 2.66371e-014 0
rhumerus -39.6962 16.0863 -86.5586
rradius 42.9647
rwrist 2.33307
rhand -3.02725 -51.5752
rfingers 7.12502
rthumb 22.6878 -80.2615
lclavicle 2.66371e-014 0
lhumerus -29.7214 10.4536 69.7062
lradius 41.1992
lwrist -5.74194
lhand -9.50728 -33.3634
lfingers 7.12502
lthumb 16.4581 -4.04148
rfemur -17.8841 -16.2905 31.9899
rtibia 44.8521
rfoot -20.9712 -25.2999
rtoes 18.8272
lfemur -22.3739 -1.34127 -21.816
ltibia 38.8831
lfoot -22.1974 15.5983
ltoes -19.747
2954
root 10.8607 15.3098 38.6882 14.1951 -69.883 -7.9213
lowerback 15.8438 4.08627 -6.16299
upperback -1.06659 3.73692 -4.05188
thorax -10.2243 1.93667 -1.84893
lowerneck -13.2586 -3.31893 -10.8021
upperneck 31.2899 -8.52604 17.5318
head 14.1666 -3.20368 7.71083
rclavicle 6.55989e-014 -2.54444e-014
rhumerus -39.8866 15.8265 -86.3065
rradius 43.0099
rwrist 1.91711
rhand -0.527112 -50.0278
rfingers 7.12502
rthumb 25.0854 -78.4002
lclavicle 6.55989e-014 -2.54444e-014
lhumerus -30.7556 10.6155 69.5855
lradius 40.9963
lwrist -6.03078
lhand -8.87868 -33.0125
lfingers 7.12502
lthumb 17.0632 -3.74188
rfemur -17.7504 -16.266 31.7962
rtibia 44.6326
rfoot -20.8598 -25.8273
rtoes 18.2527
lfemur -22.1018 -0.792922 -22.1987
ltibia 39.1927
lfoot -22.676 15.447
ltoes -16.3564
2955
root 10.8595 15.3079 38.7196 14.2917 -71.2462 -8.26335
lowerback 15.8616 4.08177 -6.22137
upperback -1.01397 3.73102 -3.9502
thorax -10.1866 1.93919 -1.70195
lowerneck -13.2559 -3.43075 -10.9998
upperneck 31.216 -8.63359 17.4965
head 14.1625 -3.28417 7.70751
rclavicle 5.12864e-014 -3.65764e-014
rhumerus -39.9658 15.474 -85.9679
rradius 43.2243
rwrist 2.03784
rhand 0.487611 -50.3811
rfingers 7.12502
rthumb 26.0573 -78.6139
lclavicle 5.12864e-014 -3.65764e-014
lhumerus -31.7771 11.2816 69.4133
lradius 40.7439
lwrist -6.86149
lhand -8.10242 -32.8892
lfingers 7.12502
lthumb 17.8103 -3.6848
rfemur -17.5168 -16.2781 31.7536
rtibia 44.2541
rfoot -19.7516 -26.6966
rtoes 13.8817
lfemur -21.8318 -0.154423 -22.4112
ltibia 39.5788
lfoot -23.1275 15.4018
ltoes -14.3875
